<svg id="visual" viewBox="0 0 900 600" width="900" height="600" xmlns="http://www.w3.org/2000/svg" xmlns:xlink="http://www.w3.org/1999/xlink" version="1.1"><rect x="0" y="0" width="900" height="600" fill="#360101"></rect><defs><linearGradient id="grad1_0" x1="33.3%" y1="0%" x2="100%" y2="100%"><stop offset="20%" stop-color="#fbae3c" stop-opacity="1"></stop><stop offset="80%" stop-color="#fbae3c" stop-opacity="1"></stop></linearGradient></defs><defs><linearGradient id="grad1_1" x1="33.3%" y1="0%" x2="100%" y2="100%"><stop offset="20%" stop-color="#fbae3c" stop-opacity="1"></stop><stop offset="80%" stop-color="#d98434" stop-opacity="1"></stop></linearGradient></defs><defs><linearGradient id="grad1_2" x1="33.3%" y1="0%" x2="100%" y2="100%"><stop offset="20%" stop-color="#b35d2c" stop-opacity="1"></stop><stop offset="80%" stop-color="#d98434" stop-opacity="1"></stop></linearGradient></defs><defs><linearGradient id="grad1_3" x1="33.3%" y1="0%" x2="100%" y2="100%"><stop offset="20%" stop-color="#b35d2c" stop-opacity="1"></stop><stop offset="80%" stop-color="#8a3a23" stop-opacity="1"></stop></linearGradient></defs><defs><linearGradient id="grad1_4" x1="33.3%" y1="0%" x2="100%" y2="100%"><stop offset="20%" stop-color="#5f1b17" stop-opacity="1"></stop><stop offset="80%" stop-color="#8a3a23" stop-opacity="1"></stop></linearGradient></defs><defs><linearGradient id="grad1_5" x1="33.3%" y1="0%" x2="100%" y2="100%"><stop offset="20%" stop-color="#5f1b17" stop-opacity="1"></stop><stop offset="80%" stop-color="#360101" stop-opacity="1"></stop></linearGradient></defs><defs><linearGradient id="grad2_0" x1="0%" y1="0%" x2="66.7%" y2="100%"><stop offset="20%" stop-color="#fbae3c" stop-opacity="1"></stop><stop offset="80%" stop-color="#fbae3c" stop-opacity="1"></stop></linearGradient></defs><defs><linearGradient id="grad2_1" x1="0%" y1="0%" x2="66.7%" y2="100%"><stop offset="20%" stop-color="#d98434" stop-opacity="1"></stop><stop offset="80%" stop-color="#fbae3c" stop-opacity="1"></stop></linearGradient></defs><defs><linearGradient id="grad2_2" x1="0%" y1="0%" x2="66.7%" y2="100%"><stop offset="20%" stop-color="#d98434" stop-opacity="1"></stop><stop offset="80%" stop-color="#b35d2c" stop-opacity="1"></stop></linearGradient></defs><defs><linearGradient id="grad2_3" x1="0%" y1="0%" x2="66.7%" y2="100%"><stop offset="20%" stop-color="#8a3a23" stop-opacity="1"></stop><stop offset="80%" stop-color="#b35d2c" stop-opacity="1"></stop></linearGradient></defs><defs><linearGradient id="grad2_4" x1="0%" y1="0%" x2="66.7%" y2="100%"><stop offset="20%" stop-color="#8a3a23" stop-opacity="1"></stop><stop offset="80%" stop-color="#5f1b17" stop-opacity="1"></stop></linearGradient></defs><defs><linearGradient id="grad2_5" x1="0%" y1="0%" x2="66.7%" y2="100%"><stop offset="20%" stop-color="#360101" stop-opacity="1"></stop><stop offset="80%" stop-color="#5f1b17" stop-opacity="1"></stop></linearGradient></defs><g transform="translate(900, 0)"><path d="M0 405.6C-37.4 407 -74.9 408.4 -105 391.8C-135.1 375.3 -157.9 340.8 -182 315.2C-206.1 289.7 -231.3 273 -247.5 247.5C-263.6 221.9 -270.7 187.5 -274.5 158.5C-278.4 129.5 -279.1 106 -300.4 80.5C-321.7 55 -363.7 27.5 -405.6 0L0 0Z" fill="#4a0d0f"></path><path d="M0 338C-31.2 339.2 -62.4 340.3 -87.5 326.5C-112.6 312.7 -131.6 284 -151.7 262.7C-171.7 241.4 -192.8 227.5 -206.2 206.2C-219.7 184.9 -225.6 156.2 -228.8 132.1C-232 107.9 -232.6 88.3 -250.3 67.1C-268.1 45.8 -303.1 22.9 -338 0L0 0Z" fill="#742a1d"></path><path d="M0 270.4C-25 271.3 -49.9 272.2 -70 261.2C-90.1 250.2 -105.3 227.2 -121.3 210.2C-137.4 193.1 -154.2 182 -165 165C-175.8 148 -180.4 125 -183 105.7C-185.6 86.3 -186.1 70.7 -200.3 53.7C-214.5 36.7 -242.4 18.3 -270.4 0L0 0Z" fill="#9e4b28"></path><path d="M0 202.8C-18.7 203.5 -37.4 204.2 -52.5 195.9C-67.6 187.6 -79 170.4 -91 157.6C-103 144.8 -115.7 136.5 -123.7 123.7C-131.8 111 -135.3 93.7 -137.3 79.3C-139.2 64.8 -139.5 53 -150.2 40.2C-160.9 27.5 -181.8 13.7 -202.8 0L0 0Z" fill="#c67030"></path><path d="M0 135.2C-12.5 135.7 -25 136.1 -35 130.6C-45 125.1 -52.6 113.6 -60.7 105.1C-68.7 96.6 -77.1 91 -82.5 82.5C-87.9 74 -90.2 62.5 -91.5 52.8C-92.8 43.2 -93 35.3 -100.1 26.8C-107.2 18.3 -121.2 9.2 -135.2 0L0 0Z" fill="#eb9838"></path><path d="M0 67.6C-6.2 67.8 -12.5 68.1 -17.5 65.3C-22.5 62.5 -26.3 56.8 -30.3 52.5C-34.3 48.3 -38.6 45.5 -41.2 41.2C-43.9 37 -45.1 31.2 -45.8 26.4C-46.4 21.6 -46.5 17.7 -50.1 13.4C-53.6 9.2 -60.6 4.6 -67.6 0L0 0Z" fill="#fbae3c"></path></g><g transform="translate(0, 600)"><path d="M0 -405.6C29.4 -370.3 58.9 -334.9 84.1 -313.9C109.4 -293 130.4 -286.4 166.5 -288.4C202.6 -290.4 253.8 -301 286.8 -286.8C319.8 -272.7 334.7 -233.8 342.9 -198C351.2 -162.2 352.9 -129.5 362.2 -97.1C371.6 -64.6 388.6 -32.3 405.6 0L0 0Z" fill="#4a0d0f"></path><path d="M0 -338C24.5 -308.5 49.1 -279.1 70.1 -261.6C91.1 -244.1 108.7 -238.7 138.7 -240.3C168.8 -242 211.5 -250.8 239 -239C266.5 -227.2 278.9 -194.8 285.8 -165C292.7 -135.2 294.1 -107.9 301.9 -80.9C309.6 -53.8 323.8 -26.9 338 0L0 0Z" fill="#742a1d"></path><path d="M0 -270.4C19.6 -246.8 39.3 -223.3 56.1 -209.3C72.9 -195.3 86.9 -190.9 111 -192.3C135.1 -193.6 169.2 -200.6 191.2 -191.2C213.2 -181.8 223.1 -155.9 228.6 -132C234.1 -108.1 235.2 -86.4 241.5 -64.7C247.7 -43 259.1 -21.5 270.4 0L0 0Z" fill="#9e4b28"></path><path d="M0 -202.8C14.7 -185.1 29.4 -167.4 42.1 -157C54.7 -146.5 65.2 -143.2 83.2 -144.2C101.3 -145.2 126.9 -150.5 143.4 -143.4C159.9 -136.3 167.3 -116.9 171.5 -99C175.6 -81.1 176.4 -64.8 181.1 -48.5C185.8 -32.3 194.3 -16.1 202.8 0L0 0Z" fill="#c67030"></path><path d="M0 -135.2C9.8 -123.4 19.6 -111.6 28 -104.6C36.5 -97.7 43.5 -95.5 55.5 -96.1C67.5 -96.8 84.6 -100.3 95.6 -95.6C106.6 -90.9 111.6 -77.9 114.3 -66C117.1 -54.1 117.6 -43.2 120.7 -32.4C123.9 -21.5 129.5 -10.8 135.2 0L0 0Z" fill="#eb9838"></path><path d="M0 -67.6C4.9 -61.7 9.8 -55.8 14 -52.3C18.2 -48.8 21.7 -47.7 27.7 -48.1C33.8 -48.4 42.3 -50.2 47.8 -47.8C53.3 -45.4 55.8 -39 57.2 -33C58.5 -27 58.8 -21.6 60.4 -16.2C61.9 -10.8 64.8 -5.4 67.6 0L0 0Z" fill="#fbae3c"></path></g></svg>