<svg id="visual" viewBox="0 0 540 960" width="540" height="960" xmlns="http://www.w3.org/2000/svg" xmlns:xlink="http://www.w3.org/1999/xlink" version="1.1"><rect x="0" y="0" width="540" height="960" fill="#200333"></rect><defs><linearGradient id="grad1_0" x1="0%" y1="100%" x2="100%" y2="0%"><stop offset="30%" stop-color="#00c596" stop-opacity="1"></stop><stop offset="70%" stop-color="#00c596" stop-opacity="1"></stop></linearGradient></defs><defs><linearGradient id="grad1_1" x1="0%" y1="100%" x2="100%" y2="0%"><stop offset="30%" stop-color="#00c596" stop-opacity="1"></stop><stop offset="70%" stop-color="#00aba0" stop-opacity="1"></stop></linearGradient></defs><defs><linearGradient id="grad1_2" x1="0%" y1="100%" x2="100%" y2="0%"><stop offset="30%" stop-color="#0090a4" stop-opacity="1"></stop><stop offset="70%" stop-color="#00aba0" stop-opacity="1"></stop></linearGradient></defs><defs><linearGradient id="grad1_3" x1="0%" y1="100%" x2="100%" y2="0%"><stop offset="30%" stop-color="#0090a4" stop-opacity="1"></stop><stop offset="70%" stop-color="#00759f" stop-opacity="1"></stop></linearGradient></defs><defs><linearGradient id="grad1_4" x1="0%" y1="100%" x2="100%" y2="0%"><stop offset="30%" stop-color="#00588f" stop-opacity="1"></stop><stop offset="70%" stop-color="#00759f" stop-opacity="1"></stop></linearGradient></defs><defs><linearGradient id="grad1_5" x1="0%" y1="100%" x2="100%" y2="0%"><stop offset="30%" stop-color="#00588f" stop-opacity="1"></stop><stop offset="70%" stop-color="#003d76" stop-opacity="1"></stop></linearGradient></defs><defs><linearGradient id="grad1_6" x1="0%" y1="100%" x2="100%" y2="0%"><stop offset="30%" stop-color="#122156" stop-opacity="1"></stop><stop offset="70%" stop-color="#003d76" stop-opacity="1"></stop></linearGradient></defs><defs><linearGradient id="grad1_7" x1="0%" y1="100%" x2="100%" y2="0%"><stop offset="30%" stop-color="#122156" stop-opacity="1"></stop><stop offset="70%" stop-color="#200333" stop-opacity="1"></stop></linearGradient></defs><defs><linearGradient id="grad2_0" x1="0%" y1="100%" x2="100%" y2="0%"><stop offset="30%" stop-color="#00c596" stop-opacity="1"></stop><stop offset="70%" stop-color="#00c596" stop-opacity="1"></stop></linearGradient></defs><defs><linearGradient id="grad2_1" x1="0%" y1="100%" x2="100%" y2="0%"><stop offset="30%" stop-color="#00aba0" stop-opacity="1"></stop><stop offset="70%" stop-color="#00c596" stop-opacity="1"></stop></linearGradient></defs><defs><linearGradient id="grad2_2" x1="0%" y1="100%" x2="100%" y2="0%"><stop offset="30%" stop-color="#00aba0" stop-opacity="1"></stop><stop offset="70%" stop-color="#0090a4" stop-opacity="1"></stop></linearGradient></defs><defs><linearGradient id="grad2_3" x1="0%" y1="100%" x2="100%" y2="0%"><stop offset="30%" stop-color="#00759f" stop-opacity="1"></stop><stop offset="70%" stop-color="#0090a4" stop-opacity="1"></stop></linearGradient></defs><defs><linearGradient id="grad2_4" x1="0%" y1="100%" x2="100%" y2="0%"><stop offset="30%" stop-color="#00759f" stop-opacity="1"></stop><stop offset="70%" stop-color="#00588f" stop-opacity="1"></stop></linearGradient></defs><defs><linearGradient id="grad2_5" x1="0%" y1="100%" x2="100%" y2="0%"><stop offset="30%" stop-color="#003d76" stop-opacity="1"></stop><stop offset="70%" stop-color="#00588f" stop-opacity="1"></stop></linearGradient></defs><defs><linearGradient id="grad2_6" x1="0%" y1="100%" x2="100%" y2="0%"><stop offset="30%" stop-color="#003d76" stop-opacity="1"></stop><stop offset="70%" stop-color="#122156" stop-opacity="1"></stop></linearGradient></defs><defs><linearGradient id="grad2_7" x1="0%" y1="100%" x2="100%" y2="0%"><stop offset="30%" stop-color="#200333" stop-opacity="1"></stop><stop offset="70%" stop-color="#122156" stop-opacity="1"></stop></linearGradient></defs><g transform="translate(540, 960)"><path d="M-351 0C-333.7 -23.1 -316.4 -46.1 -308.1 -70.3C-299.7 -94.5 -300.3 -119.9 -291.9 -140.6C-283.5 -161.3 -266.1 -177.4 -255.7 -203.9C-245.2 -230.4 -241.6 -267.4 -218.8 -274.4C-196.1 -281.5 -154 -258.7 -128.9 -267.6C-103.7 -276.5 -95.4 -317.2 -76.8 -336.4C-58.1 -355.5 -29.1 -353.3 0 -351L0 0Z" fill="#1d1345"></path><path d="M-307.1 0C-292 -20.2 -276.9 -40.3 -269.6 -61.5C-262.3 -82.7 -262.8 -104.9 -255.4 -123C-248.1 -141.1 -232.9 -155.2 -223.7 -178.4C-214.5 -201.6 -211.4 -233.9 -191.5 -240.1C-171.5 -246.3 -134.8 -226.3 -112.8 -234.1C-90.7 -241.9 -83.5 -277.5 -67.2 -294.3C-50.8 -311.1 -25.4 -309.1 0 -307.1L0 0Z" fill="#002f67"></path><path d="M-263.2 0C-250.3 -17.3 -237.3 -34.6 -231.1 -52.7C-224.8 -70.9 -225.2 -89.9 -218.9 -105.4C-212.6 -121 -199.6 -133 -191.7 -152.9C-183.9 -172.8 -181.2 -200.5 -164.1 -205.8C-147 -211.1 -115.5 -194 -96.6 -200.7C-77.8 -207.4 -71.6 -237.9 -57.6 -252.3C-43.6 -266.7 -21.8 -265 0 -263.2L0 0Z" fill="#004a84"></path><path d="M-219.4 0C-208.6 -14.4 -197.8 -28.8 -192.5 -43.9C-187.3 -59.1 -187.7 -74.9 -182.4 -87.9C-177.2 -100.8 -166.3 -110.9 -159.8 -127.4C-153.2 -144 -151 -167.1 -136.8 -171.5C-122.5 -175.9 -96.3 -161.7 -80.5 -167.2C-64.8 -172.8 -59.6 -198.2 -48 -210.2C-36.3 -222.2 -18.2 -220.8 0 -219.4L0 0Z" fill="#006798"></path><path d="M-175.5 0C-166.9 -11.5 -158.2 -23.1 -154 -35.2C-149.9 -47.3 -150.2 -59.9 -146 -70.3C-141.8 -80.6 -133.1 -88.7 -127.8 -101.9C-122.6 -115.2 -120.8 -133.7 -109.4 -137.2C-98 -140.7 -77 -129.3 -64.4 -133.8C-51.9 -138.3 -47.7 -158.6 -38.4 -168.2C-29.1 -177.8 -14.5 -176.6 0 -175.5L0 0Z" fill="#0083a3"></path><path d="M-131.6 0C-125.1 -8.6 -118.7 -17.3 -115.5 -26.4C-112.4 -35.4 -112.6 -45 -109.5 -52.7C-106.3 -60.5 -99.8 -66.5 -95.9 -76.5C-91.9 -86.4 -90.6 -100.3 -82.1 -102.9C-73.5 -105.6 -57.8 -97 -48.3 -100.3C-38.9 -103.7 -35.8 -118.9 -28.8 -126.1C-21.8 -133.3 -10.9 -132.5 0 -131.6L0 0Z" fill="#009ea3"></path><path d="M-87.7 0C-83.4 -5.8 -79.1 -11.5 -77 -17.6C-74.9 -23.6 -75.1 -30 -73 -35.1C-70.9 -40.3 -66.5 -44.3 -63.9 -51C-61.3 -57.6 -60.4 -66.8 -54.7 -68.6C-49 -70.4 -38.5 -64.7 -32.2 -66.9C-25.9 -69.1 -23.9 -79.3 -19.2 -84.1C-14.5 -88.9 -7.3 -88.3 0 -87.7L0 0Z" fill="#00b89c"></path><path d="M-43.9 0C-41.7 -2.9 -39.6 -5.8 -38.5 -8.8C-37.5 -11.8 -37.5 -15 -36.5 -17.6C-35.4 -20.2 -33.3 -22.2 -32 -25.5C-30.6 -28.8 -30.2 -33.4 -27.4 -34.3C-24.5 -35.2 -19.3 -32.3 -16.1 -33.4C-13 -34.6 -11.9 -39.6 -9.6 -42C-7.3 -44.4 -3.6 -44.2 0 -43.9L0 0Z" fill="#00c596"></path></g><g transform="translate(0, 0)"><path d="M351 0C331.8 24 312.5 47.9 298.3 68.1C284.2 88.2 275 104.6 276.6 133.2C278.1 161.8 290.3 202.7 274.4 218.8C258.5 235 214.4 226.4 190.2 238.5C165.9 250.5 161.4 283 145.4 301.8C129.3 320.6 101.8 325.6 75.7 331.5C49.5 337.4 24.8 344.2 0 351L0 0Z" fill="#1d1345"></path><path d="M307.1 0C290.3 21 273.4 41.9 261 59.6C248.6 77.2 240.7 91.5 242 116.6C243.4 141.6 254.1 177.4 240.1 191.5C226.2 205.6 187.6 198.1 166.4 208.7C145.1 219.2 141.2 247.7 127.2 264.1C113.2 280.5 89.1 284.9 66.2 290C43.3 295.2 21.7 301.2 0 307.1L0 0Z" fill="#002f67"></path><path d="M263.3 0C248.8 18 234.4 36 223.7 51.1C213.1 66.2 206.3 78.4 207.4 99.9C208.6 121.4 217.8 152 205.8 164.1C193.9 176.3 160.8 169.8 142.6 178.8C124.4 187.9 121 212.3 109 226.4C97 240.5 76.4 244.2 56.7 248.6C37.1 253 18.6 258.1 0 263.3L0 0Z" fill="#004a84"></path><path d="M219.4 0C207.3 15 195.3 30 186.5 42.6C177.6 55.2 171.9 65.4 172.9 83.3C173.8 101.1 181.5 126.7 171.5 136.8C161.6 146.9 134 141.5 118.9 149C103.7 156.5 100.9 176.9 90.8 188.6C80.8 200.4 63.6 203.5 47.3 207.2C30.9 210.9 15.5 215.1 0 219.4L0 0Z" fill="#006798"></path><path d="M175.5 0C165.9 12 156.3 24 149.2 34C142.1 44.1 137.5 52.3 138.3 66.6C139.1 80.9 145.2 101.3 137.2 109.4C129.2 117.5 107.2 113.2 95.1 119.2C82.9 125.2 80.7 141.5 72.7 150.9C64.7 160.3 50.9 162.8 37.8 165.7C24.8 168.7 12.4 172.1 0 175.5L0 0Z" fill="#0083a3"></path><path d="M131.6 0C124.4 9 117.2 18 111.9 25.5C106.6 33.1 103.1 39.2 103.7 50C104.3 60.7 108.9 76 102.9 82.1C96.9 88.1 80.4 84.9 71.3 89.4C62.2 93.9 60.5 106.1 54.5 113.2C48.5 120.2 38.2 122.1 28.4 124.3C18.6 126.5 9.3 129.1 0 131.6L0 0Z" fill="#009ea3"></path><path d="M87.8 0C82.9 6 78.1 12 74.6 17C71 22.1 68.8 26.1 69.1 33.3C69.5 40.5 72.6 50.7 68.6 54.7C64.6 58.8 53.6 56.6 47.5 59.6C41.5 62.6 40.3 70.8 36.3 75.5C32.3 80.2 25.5 81.4 18.9 82.9C12.4 84.3 6.2 86 0 87.8L0 0Z" fill="#00b89c"></path><path d="M43.9 0C41.5 3 39.1 6 37.3 8.5C35.5 11 34.4 13.1 34.6 16.7C34.8 20.2 36.3 25.3 34.3 27.4C32.3 29.4 26.8 28.3 23.8 29.8C20.7 31.3 20.2 35.4 18.2 37.7C16.2 40.1 12.7 40.7 9.5 41.4C6.2 42.2 3.1 43 0 43.9L0 0Z" fill="#00c596"></path></g></svg>