<svg id="visual" viewBox="0 0 675 900" width="675" height="900" xmlns="http://www.w3.org/2000/svg" xmlns:xlink="http://www.w3.org/1999/xlink" version="1.1"><rect x="0" y="0" width="675" height="900" fill="#200333"></rect><defs><linearGradient id="grad1_0" x1="0%" y1="100%" x2="100%" y2="0%"><stop offset="30%" stop-color="#00c596" stop-opacity="1"></stop><stop offset="70%" stop-color="#00c596" stop-opacity="1"></stop></linearGradient></defs><defs><linearGradient id="grad1_1" x1="0%" y1="100%" x2="100%" y2="0%"><stop offset="30%" stop-color="#00c596" stop-opacity="1"></stop><stop offset="70%" stop-color="#00aba0" stop-opacity="1"></stop></linearGradient></defs><defs><linearGradient id="grad1_2" x1="0%" y1="100%" x2="100%" y2="0%"><stop offset="30%" stop-color="#0090a4" stop-opacity="1"></stop><stop offset="70%" stop-color="#00aba0" stop-opacity="1"></stop></linearGradient></defs><defs><linearGradient id="grad1_3" x1="0%" y1="100%" x2="100%" y2="0%"><stop offset="30%" stop-color="#0090a4" stop-opacity="1"></stop><stop offset="70%" stop-color="#00759f" stop-opacity="1"></stop></linearGradient></defs><defs><linearGradient id="grad1_4" x1="0%" y1="100%" x2="100%" y2="0%"><stop offset="30%" stop-color="#00588f" stop-opacity="1"></stop><stop offset="70%" stop-color="#00759f" stop-opacity="1"></stop></linearGradient></defs><defs><linearGradient id="grad1_5" x1="0%" y1="100%" x2="100%" y2="0%"><stop offset="30%" stop-color="#00588f" stop-opacity="1"></stop><stop offset="70%" stop-color="#003d76" stop-opacity="1"></stop></linearGradient></defs><defs><linearGradient id="grad1_6" x1="0%" y1="100%" x2="100%" y2="0%"><stop offset="30%" stop-color="#122156" stop-opacity="1"></stop><stop offset="70%" stop-color="#003d76" stop-opacity="1"></stop></linearGradient></defs><defs><linearGradient id="grad1_7" x1="0%" y1="100%" x2="100%" y2="0%"><stop offset="30%" stop-color="#122156" stop-opacity="1"></stop><stop offset="70%" stop-color="#200333" stop-opacity="1"></stop></linearGradient></defs><defs><linearGradient id="grad2_0" x1="0%" y1="100%" x2="100%" y2="0%"><stop offset="30%" stop-color="#00c596" stop-opacity="1"></stop><stop offset="70%" stop-color="#00c596" stop-opacity="1"></stop></linearGradient></defs><defs><linearGradient id="grad2_1" x1="0%" y1="100%" x2="100%" y2="0%"><stop offset="30%" stop-color="#00aba0" stop-opacity="1"></stop><stop offset="70%" stop-color="#00c596" stop-opacity="1"></stop></linearGradient></defs><defs><linearGradient id="grad2_2" x1="0%" y1="100%" x2="100%" y2="0%"><stop offset="30%" stop-color="#00aba0" stop-opacity="1"></stop><stop offset="70%" stop-color="#0090a4" stop-opacity="1"></stop></linearGradient></defs><defs><linearGradient id="grad2_3" x1="0%" y1="100%" x2="100%" y2="0%"><stop offset="30%" stop-color="#00759f" stop-opacity="1"></stop><stop offset="70%" stop-color="#0090a4" stop-opacity="1"></stop></linearGradient></defs><defs><linearGradient id="grad2_4" x1="0%" y1="100%" x2="100%" y2="0%"><stop offset="30%" stop-color="#00759f" stop-opacity="1"></stop><stop offset="70%" stop-color="#00588f" stop-opacity="1"></stop></linearGradient></defs><defs><linearGradient id="grad2_5" x1="0%" y1="100%" x2="100%" y2="0%"><stop offset="30%" stop-color="#003d76" stop-opacity="1"></stop><stop offset="70%" stop-color="#00588f" stop-opacity="1"></stop></linearGradient></defs><defs><linearGradient id="grad2_6" x1="0%" y1="100%" x2="100%" y2="0%"><stop offset="30%" stop-color="#003d76" stop-opacity="1"></stop><stop offset="70%" stop-color="#122156" stop-opacity="1"></stop></linearGradient></defs><defs><linearGradient id="grad2_7" x1="0%" y1="100%" x2="100%" y2="0%"><stop offset="30%" stop-color="#200333" stop-opacity="1"></stop><stop offset="70%" stop-color="#122156" stop-opacity="1"></stop></linearGradient></defs><g transform="translate(675, 900)"><path d="M-365.6 0C-328.9 -19.3 -292.1 -38.6 -286.6 -65.4C-281.1 -92.3 -306.9 -126.7 -299.1 -144C-291.3 -161.4 -250 -161.8 -238.5 -190.2C-226.9 -218.5 -245.3 -274.9 -228 -285.9C-210.7 -296.8 -157.7 -262.5 -128.9 -267.6C-100 -272.7 -95.1 -317.3 -77.7 -340.2C-60.2 -363.2 -30.1 -364.4 0 -365.6L0 0Z" fill="#1d1345"></path><path d="M-319.9 0C-287.8 -16.9 -255.6 -33.8 -250.8 -57.2C-246 -80.7 -268.5 -110.8 -261.7 -126C-254.9 -141.3 -218.7 -141.6 -208.7 -166.4C-198.6 -191.2 -214.6 -240.5 -199.5 -250.1C-184.3 -259.7 -138 -229.7 -112.8 -234.1C-87.5 -238.6 -83.2 -277.7 -68 -297.7C-52.7 -317.8 -26.3 -318.8 0 -319.9L0 0Z" fill="#002f67"></path><path d="M-274.2 0C-246.7 -14.5 -219.1 -28.9 -215 -49.1C-210.9 -69.2 -230.2 -95 -224.3 -108C-218.5 -121.1 -187.5 -121.4 -178.8 -142.6C-170.2 -163.9 -183.9 -206.2 -171 -214.4C-158 -222.6 -118.3 -196.8 -96.6 -200.7C-75 -204.5 -71.3 -238 -58.2 -255.2C-45.1 -272.4 -22.6 -273.3 0 -274.2L0 0Z" fill="#004a84"></path><path d="M-228.5 0C-205.5 -12.1 -182.6 -24.1 -179.1 -40.9C-175.7 -57.7 -191.8 -79.2 -187 -90C-182.1 -100.9 -156.2 -101.1 -149 -118.9C-141.8 -136.6 -153.3 -171.8 -142.5 -178.7C-131.7 -185.5 -98.6 -164 -80.5 -167.2C-62.5 -170.4 -59.5 -198.3 -48.5 -212.7C-37.6 -227 -18.8 -227.7 0 -228.5L0 0Z" fill="#006798"></path><path d="M-182.8 0C-164.4 -9.6 -146.1 -19.3 -143.3 -32.7C-140.6 -46.1 -153.5 -63.3 -149.6 -72C-145.7 -80.7 -125 -80.9 -119.2 -95.1C-113.5 -109.3 -122.6 -137.4 -114 -142.9C-105.3 -148.4 -78.9 -131.2 -64.4 -133.8C-50 -136.4 -47.6 -158.7 -38.8 -170.1C-30.1 -181.6 -15 -182.2 0 -182.8L0 0Z" fill="#0083a3"></path><path d="M-137.1 0C-123.3 -7.2 -109.5 -14.5 -107.5 -24.5C-105.4 -34.6 -115.1 -47.5 -112.2 -54C-109.2 -60.5 -93.7 -60.7 -89.4 -71.3C-85.1 -81.9 -92 -103.1 -85.5 -107.2C-79 -111.3 -59.2 -98.4 -48.3 -100.3C-37.5 -102.3 -35.7 -119 -29.1 -127.6C-22.6 -136.2 -11.3 -136.6 0 -137.1L0 0Z" fill="#009ea3"></path><path d="M-91.4 0C-82.2 -4.8 -73 -9.6 -71.7 -16.4C-70.3 -23.1 -76.7 -31.7 -74.8 -36C-72.8 -40.4 -62.5 -40.5 -59.6 -47.5C-56.7 -54.6 -61.3 -68.7 -57 -71.5C-52.7 -74.2 -39.4 -65.6 -32.2 -66.9C-25 -68.2 -23.8 -79.3 -19.4 -85.1C-15 -90.8 -7.5 -91.1 0 -91.4L0 0Z" fill="#00b89c"></path><path d="M-45.7 0C-41.1 -2.4 -36.5 -4.8 -35.8 -8.2C-35.1 -11.5 -38.4 -15.8 -37.4 -18C-36.4 -20.2 -31.2 -20.2 -29.8 -23.8C-28.4 -27.3 -30.7 -34.4 -28.5 -35.7C-26.3 -37.1 -19.7 -32.8 -16.1 -33.4C-12.5 -34.1 -11.9 -39.7 -9.7 -42.5C-7.5 -45.4 -3.8 -45.5 0 -45.7L0 0Z" fill="#00c596"></path></g><g transform="translate(0, 0)"><path d="M365.6 0C364.9 28.1 364.2 56.2 353.9 80.8C343.6 105.4 323.8 126.5 309 148.8C294.3 171.1 284.5 194.6 272.1 217C259.6 239.3 244.5 260.5 226.3 283.8C208.1 307.1 186.9 332.7 158.6 329.4C130.4 326.2 95 294.2 67.4 295.4C39.8 296.6 19.9 331.1 0 365.6L0 0Z" fill="#1d1345"></path><path d="M319.9 0C319.3 24.6 318.6 49.1 309.7 70.7C300.7 92.2 283.3 110.7 270.4 130.2C257.5 149.7 248.9 170.3 238.1 189.9C227.2 209.4 213.9 227.9 198 248.3C182.1 268.8 163.6 291.1 138.8 288.2C114.1 285.4 83.2 257.4 59 258.5C34.8 259.6 17.4 289.7 0 319.9L0 0Z" fill="#002f67"></path><path d="M274.2 0C273.7 21.1 273.1 42.1 265.4 60.6C257.7 79 242.9 94.9 231.8 111.6C220.7 128.4 213.4 146 204.1 162.7C194.7 179.5 183.4 195.3 169.7 212.9C156.1 230.4 140.2 249.5 119 247.1C97.8 244.6 71.3 220.6 50.6 221.6C29.9 222.5 14.9 248.4 0 274.2L0 0Z" fill="#004a84"></path><path d="M228.5 0C228.1 17.6 227.6 35.1 221.2 50.5C214.8 65.9 202.4 79.1 193.1 93C183.9 107 177.8 121.7 170 135.6C162.3 149.6 152.8 162.8 141.5 177.4C130.1 192 116.8 207.9 99.1 205.9C81.5 203.9 59.4 183.9 42.1 184.6C24.9 185.4 12.4 207 0 228.5L0 0Z" fill="#006798"></path><path d="M182.8 0C182.4 14 182.1 28.1 176.9 40.4C171.8 52.7 161.9 63.3 154.5 74.4C147.1 85.6 142.3 97.3 136 108.5C129.8 119.7 122.3 130.2 113.2 141.9C104.1 153.6 93.5 166.3 79.3 164.7C65.2 163.1 47.5 147.1 33.7 147.7C19.9 148.3 10 165.6 0 182.8L0 0Z" fill="#0083a3"></path><path d="M137.1 0C136.8 10.5 136.6 21.1 132.7 30.3C128.9 39.5 121.4 47.4 115.9 55.8C110.3 64.2 106.7 73 102 81.4C97.4 89.7 91.7 97.7 84.9 106.4C78.1 115.2 70.1 124.7 59.5 123.5C48.9 122.3 35.6 110.3 25.3 110.8C14.9 111.2 7.5 124.2 0 137.1L0 0Z" fill="#009ea3"></path><path d="M91.4 0C91.2 7 91 14 88.5 20.2C85.9 26.3 81 31.6 77.3 37.2C73.6 42.8 71.1 48.7 68 54.2C64.9 59.8 61.1 65.1 56.6 71C52 76.8 46.7 83.2 39.7 82.4C32.6 81.5 23.8 73.5 16.9 73.9C10 74.2 5 82.8 0 91.4L0 0Z" fill="#00b89c"></path><path d="M45.7 0C45.6 3.5 45.5 7 44.2 10.1C43 13.2 40.5 15.8 38.6 18.6C36.8 21.4 35.6 24.3 34 27.1C32.5 29.9 30.6 32.6 28.3 35.5C26 38.4 23.4 41.6 19.8 41.2C16.3 40.8 11.9 36.8 8.4 36.9C5 37.1 2.5 41.4 0 45.7L0 0Z" fill="#00c596"></path></g></svg>